<?xml version="1.0" encoding="UTF-8"?><svg id="UNCX_Network" xmlns="http://www.w3.org/2000/svg" xmlns:xlink="http://www.w3.org/1999/xlink" viewBox="0 0 24.9 24.9"><defs><style>.cls-1{fill:url(#linear-gradient);stroke-width:0px;}</style><linearGradient id="linear-gradient" x1="12.45" y1="24.9" x2="12.45" y2="0" gradientUnits="userSpaceOnUse"><stop offset="0" stop-color="#00c68d"/><stop offset="1" stop-color="#00f847"/></linearGradient></defs><path id="UNCX_Network_Mini_Icon" class="cls-1" d="m24.89,11.92c-.05-1.22-.28-2.4-.67-3.51-.03-.11-.08-.22-.12-.31C22.33,3.37,17.78,0,12.45,0,5.59,0,0,5.59,0,12.45s5.59,12.45,12.45,12.45c.54,0,1.08-.03,1.6-.11h.03c6-.79,10.65-5.86,10.8-12.03.01-.1.01-.21.01-.31v-.27c0-.09,0-.17-.01-.26Zm-22.72.53C2.17,6.78,6.78,2.17,12.45,2.17c3.18,0,6.03,1.45,7.94,3.72-.7-.14-1.47-.11-2.22.27l-.17-1.94c-.01-.14-.17-.21-.28-.13l-2.23,1.66-.6-1.07c-.06-.13-.25-.13-.31,0l-.75,1.36c-.79.26-1.52.69-2.13,1.35l-6.05-1.66c-.18-.08-.31.17-.16.28,1.95,1.41,4.74,3.09,4.77,3.12,0,0-4.04,6.35-4.04,6.37-.62,1-.28,1.84.76,2.38.58.29,1.25.41,1.89.35.91-.1,2.72-.42,5.48-1.34.28.48.44,1.12.44,1.8,0,1.29-.57,2.77-2.02,3.77-.13.1-.28.18-.43.28-5.62-.06-10.17-4.66-10.17-10.28Zm10.77.25s-1.02.91-2.35.27l2.57-2.31s.81,1.1-.22,2.04Z"/></svg>